<svg width="40" height="36" viewBox="0 0 40 36" fill="none" xmlns="http://www.w3.org/2000/svg">
<path d="M9.01717 10.3644H17.1915C17.3327 10.3644 17.4682 10.3089 17.5681 10.21C17.668 10.1111 17.7241 9.97696 17.7241 9.8371C17.7241 9.69724 17.668 9.5631 17.5681 9.46421C17.4682 9.36531 17.3327 9.30975 17.1915 9.30975H9.01717C8.8759 9.30975 8.74041 9.36531 8.64052 9.46421C8.54062 9.5631 8.4845 9.69724 8.4845 9.8371C8.4845 9.97696 8.54062 10.1111 8.64052 10.21C8.74041 10.3089 8.8759 10.3644 9.01717 10.3644ZM9.01717 21.966C8.8759 21.966 8.74041 22.0216 8.64052 22.1205C8.54062 22.2194 8.4845 22.3535 8.4845 22.4933C8.4845 22.6332 8.54062 22.7673 8.64052 22.8662C8.74041 22.9651 8.8759 23.0207 9.01717 23.0207H17.9017C18.043 23.0207 18.1784 22.9651 18.2783 22.8662C18.3782 22.7673 18.4344 22.6332 18.4344 22.4933C18.4344 22.3535 18.3782 22.2194 18.2783 22.1205C18.1784 22.0216 18.043 21.966 17.9017 21.966H9.01717ZM24.9618 14.5832C25.1031 14.5832 25.2386 14.5276 25.3385 14.4287C25.4384 14.3298 25.4945 14.1957 25.4945 14.0558C25.4945 13.916 25.4384 13.7819 25.3385 13.683C25.2386 13.5841 25.1031 13.5285 24.9618 13.5285H19.1194C18.9781 13.5285 18.8426 13.5841 18.7427 13.683C18.6428 13.7819 18.5867 13.916 18.5867 14.0558C18.5867 14.1957 18.6428 14.3298 18.7427 14.4287C18.8426 14.5276 18.9781 14.5832 19.1194 14.5832H24.9618ZM8.87349 14.5832H16.6336C16.7748 14.5832 16.9103 14.5276 17.0102 14.4287C17.1101 14.3298 17.1662 14.1957 17.1662 14.0558C17.1662 13.916 17.1101 13.7819 17.0102 13.683C16.9103 13.5841 16.7748 13.5285 16.6336 13.5285H8.87349C8.73222 13.5285 8.59673 13.5841 8.49684 13.683C8.39694 13.7819 8.34082 13.916 8.34082 14.0558C8.34082 14.1957 8.39694 14.3298 8.49684 14.4287C8.59673 14.5276 8.73222 14.5832 8.87349 14.5832ZM8.87349 18.8019H21.3707C21.512 18.8019 21.6475 18.7464 21.7474 18.6475C21.8473 18.5486 21.9034 18.4145 21.9034 18.2746C21.9034 18.1347 21.8473 18.0006 21.7474 17.9017C21.6475 17.8028 21.512 17.7473 21.3707 17.7473H8.87349C8.73222 17.7473 8.59673 17.8028 8.49684 17.9017C8.39694 18.0006 8.34082 18.1347 8.34082 18.2746C8.34082 18.4145 8.39694 18.5486 8.49684 18.6475C8.59673 18.7464 8.73222 18.8019 8.87349 18.8019ZM8.87349 27.2394H19.24C19.3813 27.2394 19.5168 27.1839 19.6167 27.085C19.7166 26.9861 19.7727 26.852 19.7727 26.7121C19.7727 26.5722 19.7166 26.4381 19.6167 26.3392C19.5168 26.2403 19.3813 26.1848 19.24 26.1848H8.87349C8.73222 26.1848 8.59673 26.2403 8.49684 26.3392C8.39694 26.4381 8.34082 26.5722 8.34082 26.7121C8.34082 26.852 8.39694 26.9861 8.49684 27.085C8.59673 27.1839 8.73222 27.2394 8.87349 27.2394Z" fill="#FCFCFC"/>
<path d="M39.9943 30.2781C39.959 29.7908 39.7332 29.0735 38.8582 28.4212L34.2278 24.7973L35.2806 23.7556C35.4827 23.8513 35.7094 23.9034 35.9485 23.9035H35.9492C36.4546 23.9035 36.9686 23.6803 37.3596 23.2912C37.3608 23.29 37.362 23.2887 37.3632 23.2875C38.0921 22.5589 38.1772 21.4607 37.552 20.8373L32.1264 15.4374C31.6415 14.9388 30.8114 14.9021 30.1986 15.2307V10.6533C30.1986 9.94924 29.9189 9.28718 29.411 8.78922L21.2377 0.774863C20.7302 0.277191 20.0553 0.00311279 19.3372 0.00311279H7.04184C5.164 0.00311279 3.63623 1.5007 3.63623 3.34141V5.29645C3.63623 5.43631 3.69235 5.57044 3.79225 5.66934C3.89214 5.76823 4.02763 5.82379 4.1689 5.82379C4.31017 5.82379 4.44566 5.76823 4.54556 5.66934C4.64545 5.57044 4.70157 5.43631 4.70157 5.29645V3.34141C4.70157 2.08218 5.75143 1.05773 7.04184 1.05773L19.6989 1.09964V7.87671C19.6989 9.21771 20.8091 10.3087 22.1738 10.3087H29.0935L29.1334 16.4648C28.9942 16.8947 29.0136 17.3442 29.1987 17.7162L24.3887 22.4756C23.7541 22.1715 22.8999 22.3344 22.2965 22.9289C21.6153 23.5773 21.4208 24.7132 22.1009 25.3837L27.5421 30.7695C27.9533 31.1801 28.5834 31.2739 29.1334 31.1065C29.1786 31.8074 28.9777 32.5089 28.4543 33.0072C28.0065 33.4474 27.4111 33.69 26.7739 33.6827L25.6832 33.675C25.4357 33.1885 24.9871 32.819 24.4458 32.6745V32.2281C24.4458 31.1619 23.5697 30.2945 22.4927 30.2945H15.934C14.857 30.2945 13.9809 31.1619 13.9809 32.2281V32.6745C13.4695 32.8111 13.0407 33.1484 12.7862 33.5957H7.04184C5.75143 33.5957 4.70157 32.5712 4.70157 31.312V7.75556C4.70157 7.6157 4.64545 7.48157 4.54556 7.38267C4.44566 7.28377 4.31017 7.22822 4.1689 7.22822C4.02763 7.22822 3.89214 7.28377 3.79225 7.38267C3.69235 7.48157 3.63623 7.6157 3.63623 7.75556V31.312C3.63623 33.1528 5.164 34.6504 7.04184 34.6504H12.5358V35.118C12.5358 35.6026 12.934 35.9969 13.4236 35.9969H15.8521C15.9934 35.9969 16.1289 35.9413 16.2288 35.8424C16.3287 35.7435 16.3848 35.6094 16.3848 35.4695C16.3848 35.3297 16.3287 35.1955 16.2288 35.0966C16.1289 34.9977 15.9934 34.9422 15.8521 34.9422H13.6011V34.5414C13.6011 34.0567 13.9994 33.6625 14.4889 33.6625H23.9379C24.4275 33.6625 24.8257 34.0567 24.8257 34.5414V34.9422H18.3379C18.1967 34.9422 18.0612 34.9977 17.9613 35.0966C17.8614 35.1955 17.8053 35.3297 17.8053 35.4695C17.8053 35.6094 17.8614 35.7435 17.9613 35.8424C18.0612 35.9413 18.1967 35.9969 18.3379 35.9969H25.0033C25.4928 35.9969 25.8911 35.6026 25.8911 35.118V34.7312C25.9223 34.7313 26.7609 34.7376 26.7918 34.7374C27.7041 34.7374 28.5603 34.3893 29.205 33.7556C29.8458 33.1257 30.1987 32.289 30.1987 31.3997V30.3748C30.6237 29.8384 30.7773 29.1093 30.48 28.5058L31.5027 27.4938L35.156 32.0921C36.4659 33.6681 37.7992 33.5096 39.1075 32.3393C39.7308 31.7209 40.0457 30.9888 39.9943 30.2781ZM15.9341 31.3492H22.4928C22.9823 31.3492 23.3805 31.7434 23.3805 32.2281V32.6078H15.0463V32.2281C15.0463 31.7434 15.4445 31.3492 15.9341 31.3492ZM30.4085 16.3709C30.687 16.117 31.0574 15.9378 31.3708 16.1808L36.7965 21.5807C37.0038 21.7874 36.9141 22.239 36.6047 22.547C36.3182 22.8142 35.8969 23.0004 35.599 22.6948L33.5894 20.6947C33.4894 20.5972 33.3546 20.5427 33.2143 20.5431C33.0739 20.5434 32.9394 20.5986 32.8399 20.6965C32.7405 20.7945 32.684 20.9274 32.6829 21.0663C32.6819 21.2052 32.7362 21.3389 32.8341 21.4384L34.47 23.0667C33.0599 24.4605 31.1923 26.3097 29.7827 27.7048L25.1975 23.1664L29.8975 18.5158L31.0668 19.6796C31.1162 19.7288 31.1748 19.7678 31.2393 19.7944C31.3039 19.8211 31.3731 19.8349 31.4431 19.8351C31.513 19.8353 31.5823 19.8218 31.647 19.7955C31.7117 19.7692 31.7705 19.7305 31.8201 19.6816C31.9203 19.583 31.9767 19.449 31.9771 19.3092C31.9775 19.1693 31.9217 19.035 31.8221 18.9359L30.2753 17.3965C29.9925 17.176 30.0754 16.712 30.4085 16.3709ZM20.7642 7.87678V1.79496L28.3713 9.25406H22.1738C21.3965 9.25406 20.7642 8.63622 20.7642 7.87678ZM28.295 30.0232L22.8538 24.6374C22.6092 24.3265 22.7881 23.9584 23.0429 23.6814C23.3812 23.3531 23.8484 23.2667 24.0675 23.5391L29.4567 28.8734C29.7021 29.1851 29.521 29.5561 29.2644 29.8324C28.955 30.1386 28.5019 30.2276 28.295 30.0232ZM38.3532 31.5947C37.5466 32.393 36.6742 32.3713 35.9974 31.4452L32.2616 26.7431L33.4693 25.5481L38.2026 29.2527C39.1368 29.925 39.1582 30.794 38.3532 31.5947Z" fill="#FCFCFC"/>
</svg>
