<svg width="40" height="36" viewBox="0 0 40 36" fill="none" xmlns="http://www.w3.org/2000/svg">
<path fill-rule="evenodd" clip-rule="evenodd" d="M13.5615 26.9937C13.5615 26.7267 13.7779 26.5103 14.0449 26.5103H16.7141C16.9811 26.5103 17.1975 26.7267 17.1975 26.9937V33.5164C17.1975 33.7834 16.9811 33.9998 16.7141 33.9998H14.0449C13.7779 33.9998 13.5615 33.7834 13.5615 33.5164V26.9937ZM14.5283 27.4771V33.033H16.2307V27.4771H14.5283ZM23.0121 26.9937C23.0121 26.7267 23.2285 26.5103 23.4955 26.5103H26.1647C26.4316 26.5103 26.6481 26.7267 26.6481 26.9937V33.5164C26.6481 33.7834 26.4316 33.9998 26.1647 33.9998H23.4955C23.2285 33.9998 23.0121 33.7834 23.0121 33.5164V26.9937ZM23.9789 27.4771V33.033H25.6813V27.4771H23.9789Z" fill="#FCFCFC"/>
<path fill-rule="evenodd" clip-rule="evenodd" d="M13.5615 24.1411C13.5615 22.4 14.9729 20.9885 16.7141 20.9885H23.4955C25.2366 20.9885 26.6481 22.4 26.6481 24.1411V26.9936C26.6481 27.2605 26.4317 27.4769 26.1647 27.477L23.9789 27.4773V33.5165C23.9789 33.7835 23.7625 33.9999 23.4955 33.9999H16.7141C16.4471 33.9999 16.2307 33.7835 16.2307 33.5165V27.4773L14.0448 27.477C13.7779 27.4769 13.5615 27.2605 13.5615 26.9936V24.1411ZM16.7141 21.9553C15.5069 21.9553 14.5283 22.9339 14.5283 24.1411V26.5103L16.7142 26.5106C16.9811 26.5106 17.1975 26.7271 17.1975 26.994V33.0331H23.0121V26.994C23.0121 26.7271 23.2285 26.5106 23.4954 26.5106L25.6813 26.5103V24.1411C25.6813 22.9339 24.7027 21.9553 23.4955 21.9553H16.7141Z" fill="#FCFCFC"/>
<path fill-rule="evenodd" clip-rule="evenodd" d="M20.1045 16.4834C18.8605 16.4834 17.8521 17.4919 17.8521 18.7359C17.8521 19.9799 18.8605 20.9884 20.1045 20.9884C21.3486 20.9884 22.357 19.9799 22.357 18.7359C22.357 17.4919 21.3486 16.4834 20.1045 16.4834ZM16.8853 18.7359C16.8853 16.9579 18.3266 15.5166 20.1045 15.5166C21.8825 15.5166 23.3238 16.9579 23.3238 18.7359C23.3238 20.5139 21.8825 21.9552 20.1045 21.9552C18.3266 21.9552 16.8853 20.5139 16.8853 18.7359Z" fill="#FCFCFC"/>
<path fill-rule="evenodd" clip-rule="evenodd" d="M25.6812 26.9937C25.6812 26.7267 25.8976 26.5103 26.1646 26.5103H28.8337C29.1007 26.5103 29.3171 26.7267 29.3171 26.9937V33.5164C29.3171 33.7834 29.1007 33.9998 28.8337 33.9998H26.1646C25.8976 33.9998 25.6812 33.7834 25.6812 33.5164V26.9937ZM26.6479 27.4771V33.033H28.3503V27.4771H26.6479ZM35.1318 26.9941C35.1318 26.7271 35.3482 26.5107 35.6152 26.5107H38.2848C38.5518 26.5107 38.7682 26.7271 38.7682 26.9941V28.8058C38.7682 29.0727 38.5518 29.2892 38.2848 29.2892C38.0178 29.2892 37.8014 29.0727 37.8014 28.8058V27.4775H36.0986V33.0332H37.8014V31.7041C37.8014 31.4371 38.0178 31.2207 38.2848 31.2207C38.5518 31.2207 38.7682 31.4371 38.7682 31.7041V33.5166C38.7682 33.7835 38.5518 34 38.2848 34H35.6152C35.3482 34 35.1318 33.7835 35.1318 33.5166V26.9941Z" fill="#FCFCFC"/>
<path fill-rule="evenodd" clip-rule="evenodd" d="M25.6816 24.1411C25.6816 22.4 27.0931 20.9885 28.8342 20.9885H35.6156C37.3568 20.9885 38.7682 22.4 38.7682 24.1411V26.9936C38.7682 27.2605 38.5518 27.4769 38.2849 27.477L36.099 27.4773V33.5165C36.099 33.7835 35.8826 33.9999 35.6156 33.9999H28.8342C28.5672 33.9999 28.3508 33.7835 28.3508 33.5165V27.4773L26.165 27.477C25.898 27.4769 25.6816 27.2605 25.6816 26.9936V24.1411ZM28.8342 21.9553C27.627 21.9553 26.6484 22.9339 26.6484 24.1411V26.5103L28.8343 26.5106C29.1012 26.5106 29.3176 26.7271 29.3176 26.994V33.0331H35.1322V26.994C35.1322 26.7271 35.3486 26.5106 35.6155 26.5106L37.8014 26.5103V24.1411C37.8014 22.9339 36.8228 21.9553 35.6156 21.9553H28.8342Z" fill="#FCFCFC"/>
<path fill-rule="evenodd" clip-rule="evenodd" d="M32.2247 16.4834C30.9806 16.4834 29.9722 17.4919 29.9722 18.7359C29.9722 19.9799 30.9806 20.9884 32.2247 20.9884C33.4687 20.9884 34.4772 19.9799 34.4772 18.7359C34.4772 17.4919 33.4687 16.4834 32.2247 16.4834ZM29.0054 18.7359C29.0054 16.9579 30.4467 15.5166 32.2247 15.5166C34.0026 15.5166 35.444 16.9579 35.444 18.7359C35.444 20.5139 34.0026 21.9552 32.2247 21.9552C30.4467 21.9552 29.0054 20.5139 29.0054 18.7359Z" fill="#FCFCFC"/>
<path fill-rule="evenodd" clip-rule="evenodd" d="M10.8919 26.9937C10.8919 26.7267 11.1083 26.5103 11.3753 26.5103H14.0445C14.3114 26.5103 14.5279 26.7267 14.5279 26.9937V33.5164C14.5279 33.7834 14.3114 33.9998 14.0445 33.9998H11.3753C11.1083 33.9998 10.8919 33.7834 10.8919 33.5164V26.9937ZM11.8587 27.4771V33.033H13.5611V27.4771H11.8587ZM1.44092 26.9941C1.44092 26.7271 1.65734 26.5107 1.92432 26.5107H4.5939C4.86088 26.5107 5.0773 26.7271 5.0773 26.9941V33.5166C5.0773 33.7835 4.86088 34 4.5939 34H1.92432C1.65734 34 1.44092 33.7835 1.44092 33.5166V31.7041C1.44092 31.4371 1.65734 31.2207 1.92432 31.2207C2.19129 31.2207 2.40771 31.4371 2.40771 31.7041V33.0332H4.1105V27.4775H2.40771V28.8058C2.40771 29.0727 2.19129 29.2892 1.92432 29.2892C1.65734 29.2892 1.44092 29.0727 1.44092 28.8058V26.9941Z" fill="#FCFCFC"/>
<path fill-rule="evenodd" clip-rule="evenodd" d="M1.44141 24.1411C1.44141 22.4 2.85283 20.9885 4.59398 20.9885H11.3754C13.1165 20.9885 14.528 22.3999 14.5279 24.1411C14.5279 24.1411 14.5279 24.1411 14.5279 24.1411V26.9936C14.5279 27.2605 14.3116 27.4769 14.0446 27.477L11.8588 27.4773V33.5165C11.8588 33.7835 11.6423 33.9999 11.3754 33.9999H4.59398C4.32701 33.9999 4.11058 33.7835 4.11058 33.5165V27.4773L1.92473 27.477C1.65779 27.4769 1.44141 27.2605 1.44141 26.9936V24.1411ZM4.59398 21.9553C3.38678 21.9553 2.4082 22.9339 2.4082 24.1411V26.5103L4.59405 26.5106C4.861 26.5106 5.07738 26.7271 5.07738 26.994V33.0331H10.892V26.994C10.892 26.7271 11.1084 26.5106 11.3753 26.5106L13.5611 26.5103V24.1411C13.5612 22.9339 12.5826 21.9553 11.3754 21.9553H4.59398Z" fill="#FCFCFC"/>
<path fill-rule="evenodd" clip-rule="evenodd" d="M7.98492 16.4834C6.7409 16.4834 5.73242 17.4919 5.73242 18.7359C5.73242 19.9799 6.7409 20.9884 7.98492 20.9884C9.22894 20.9884 10.2374 19.9799 10.2374 18.7359C10.2374 17.4919 9.22894 16.4834 7.98492 16.4834ZM4.76562 18.7359C4.76562 16.9579 6.20695 15.5166 7.98492 15.5166C9.76288 15.5166 11.2042 16.9579 11.2042 18.7359C11.2042 20.5139 9.76288 21.9552 7.98492 21.9552C6.20695 21.9552 4.76562 20.5139 4.76562 18.7359Z" fill="#FCFCFC"/>
<path fill-rule="evenodd" clip-rule="evenodd" d="M13.5166 6.99082C13.5166 3.68218 16.1988 1 19.5074 1C22.8161 1 25.4982 3.68218 25.4982 6.99082C25.4982 9.71721 23.6767 12.0175 21.1853 12.7434L20.2987 14.0619C20.2987 14.0619 20.2987 14.062 20.2986 14.0621C20.1214 14.3257 19.8247 14.4834 19.5074 14.4834C19.1902 14.4834 18.8934 14.3257 18.7162 14.0621C18.7162 14.0621 18.7162 14.0621 18.7162 14.062C18.7162 14.062 18.7161 14.0619 18.7161 14.0619L17.8295 12.7434C16.1358 12.2498 14.753 11.0299 14.0403 9.443C13.9309 9.19946 14.0397 8.91336 14.2832 8.80398C14.5267 8.69459 14.8128 8.80335 14.9222 9.04688C15.5413 10.4253 16.7637 11.4735 18.2512 11.8567C18.3658 11.8862 18.4656 11.9568 18.5317 12.055L19.5074 13.5061L20.4831 12.055C20.5492 11.9568 20.6491 11.8862 20.7637 11.8566C22.9305 11.2987 24.5314 9.33075 24.5314 6.99082C24.5314 4.21612 22.2821 1.9668 19.5074 1.9668C16.7327 1.9668 14.4834 4.21612 14.4834 6.99082C14.4834 7.16921 14.4925 7.34427 14.5109 7.51565C14.5394 7.7811 14.3473 8.01938 14.0818 8.04788C13.8164 8.07637 13.5781 7.88427 13.5496 7.61882C13.5273 7.41155 13.5166 7.202 13.5166 6.99082Z" fill="#FCFCFC"/>
<path fill-rule="evenodd" clip-rule="evenodd" d="M17.5225 5.9894C17.5225 5.72242 17.7389 5.506 18.0059 5.506H21.0099C21.2768 5.506 21.4933 5.72242 21.4933 5.9894C21.4933 6.25637 21.2768 6.47279 21.0099 6.47279H18.0059C17.7389 6.47279 17.5225 6.25637 17.5225 5.9894ZM17.5225 7.99203C17.5225 7.72506 17.7389 7.50863 18.0059 7.50863H21.0099C21.2768 7.50863 21.4933 7.72506 21.4933 7.99203C21.4933 8.25901 21.2768 8.47543 21.0099 8.47543H18.0059C17.7389 8.47543 17.5225 8.25901 17.5225 7.99203Z" fill="#FCFCFC"/>
</svg>
