<svg width="40" height="36" viewBox="0 0 40 36" fill="none" xmlns="http://www.w3.org/2000/svg">
<path d="M23.4955 26.9937H26.1647V33.5164H23.4955V26.9937ZM14.0449 26.9937H16.7141V33.5164H14.0449V26.9937Z" stroke="#FCFCFC" stroke-width="0.966797" stroke-miterlimit="10" stroke-linecap="round" stroke-linejoin="round"/>
<path d="M23.4955 21.4719H16.7141C15.2399 21.4719 14.0449 22.6669 14.0449 24.1411V26.9936L16.7141 26.994V33.5165H23.4955V26.994L26.1647 26.9936V24.1411C26.1647 22.6669 24.9697 21.4719 23.4955 21.4719Z" stroke="#FCFCFC" stroke-width="0.966797" stroke-miterlimit="10" stroke-linecap="round" stroke-linejoin="round"/>
<path d="M20.1045 21.4718C21.6155 21.4718 22.8404 20.2469 22.8404 18.7359C22.8404 17.2249 21.6155 16 20.1045 16C18.5936 16 17.3687 17.2249 17.3687 18.7359C17.3687 20.2469 18.5936 21.4718 20.1045 21.4718Z" stroke="#FCFCFC" stroke-width="0.966797" stroke-miterlimit="10" stroke-linecap="round" stroke-linejoin="round"/>
<path d="M38.2848 31.7041V33.5166H35.6152V26.9941H38.2848V28.8058M26.1646 26.9937H28.8337V33.5164H26.1646V26.9937Z" stroke="#FCFCFC" stroke-width="0.966797" stroke-miterlimit="10" stroke-linecap="round" stroke-linejoin="round"/>
<path d="M35.6156 21.4719H28.8342C27.36 21.4719 26.165 22.6669 26.165 24.1411V26.9936L28.8342 26.994V33.5165H35.6156V26.994L38.2848 26.9936V24.1411C38.2848 22.6669 37.0898 21.4719 35.6156 21.4719Z" stroke="#FCFCFC" stroke-width="0.966797" stroke-miterlimit="10" stroke-linecap="round" stroke-linejoin="round"/>
<path d="M32.2247 21.4718C33.7357 21.4718 34.9606 20.2469 34.9606 18.7359C34.9606 17.2249 33.7357 16 32.2247 16C30.7137 16 29.4888 17.2249 29.4888 18.7359C29.4888 20.2469 30.7137 21.4718 32.2247 21.4718Z" stroke="#FCFCFC" stroke-width="0.966797" stroke-miterlimit="10" stroke-linecap="round" stroke-linejoin="round"/>
<path d="M1.92432 31.7041V33.5166H4.5939V26.9941H1.92432V28.8058M11.3753 26.9937H14.0445V33.5164H11.3753V26.9937Z" stroke="#FCFCFC" stroke-width="0.966797" stroke-miterlimit="10" stroke-linecap="round" stroke-linejoin="round"/>
<path d="M11.3754 21.4719H4.59398C3.1198 21.4719 1.9248 22.6669 1.9248 24.1411V26.9936L4.59398 26.994V33.5165H11.3754V26.994L14.0445 26.9936V24.1411C14.0446 22.6669 12.8495 21.4719 11.3754 21.4719Z" stroke="#FCFCFC" stroke-width="0.966797" stroke-miterlimit="10" stroke-linecap="round" stroke-linejoin="round"/>
<path d="M7.98492 21.4718C9.49591 21.4718 10.7208 20.2469 10.7208 18.7359C10.7208 17.2249 9.49591 16 7.98492 16C6.47392 16 5.24902 17.2249 5.24902 18.7359C5.24902 20.2469 6.47392 21.4718 7.98492 21.4718Z" stroke="#FCFCFC" stroke-width="0.966797" stroke-miterlimit="10" stroke-linecap="round" stroke-linejoin="round"/>
<path d="M14.4813 9.24494C15.1598 10.7556 16.499 11.9045 18.1306 12.3248L19.1174 13.7923C19.2046 13.9222 19.3508 14 19.5074 14C19.664 14 19.8103 13.9222 19.8975 13.7923L20.8843 12.3248C23.2593 11.7132 25.0148 9.55669 25.0148 6.99082C25.0148 3.94915 22.5491 1.4834 19.5074 1.4834C16.4658 1.4834 14 3.94915 14 6.99082C14 7.1856 14.0099 7.37791 14.0302 7.56724" stroke="#FCFCFC" stroke-width="0.966797" stroke-miterlimit="10" stroke-linecap="round" stroke-linejoin="round"/>
<path d="M21.0099 5.98938H18.0059M18.0059 7.99202H21.0099" stroke="#FCFCFC" stroke-width="0.966797" stroke-miterlimit="10" stroke-linecap="round" stroke-linejoin="round"/>
</svg>
