<svg width="40" height="36" viewBox="0 0 40 36" fill="none" xmlns="http://www.w3.org/2000/svg">
<path fill-rule="evenodd" clip-rule="evenodd" d="M2.95068 2.33276C2.95068 1.04441 3.9951 0 5.28344 0H25.7363C26.566 0 27.2386 0.6726 27.2386 1.5023V7.89328H35.7284C36.4587 7.89328 37.0496 8.48546 37.0496 9.21445V12.4121C37.0496 12.7034 36.8135 12.9395 36.5222 12.9395C36.231 12.9395 35.9949 12.7034 35.9949 12.4121V9.21445C35.9949 9.06735 35.8756 8.94797 35.7284 8.94797H27.2386V11.9166H34.6104C34.9017 11.9166 35.1378 12.1527 35.1378 12.4439V18.7791C35.1378 19.0703 34.9017 19.3064 34.6104 19.3064H27.2386V22.4751H34.6107C34.902 22.4751 35.1381 22.7112 35.1381 23.0025C35.1381 23.2937 34.902 23.5298 34.6107 23.5298H27.2386V24.5869H34.6107C34.902 24.5869 35.1381 24.823 35.1381 25.1142C35.1381 25.4055 34.902 25.6416 34.6107 25.6416H27.2386V26.6986H34.6107C34.902 26.6986 35.1381 26.9347 35.1381 27.2259C35.1381 27.5172 34.902 27.7533 34.6107 27.7533H27.2386V30.2153C27.2386 31.045 26.566 31.7176 25.7363 31.7176H17.0119V34.6788C17.0119 34.8256 17.1316 34.9453 17.2784 34.9453H35.7284C35.8756 34.9453 35.9949 34.8259 35.9949 34.6788V14.8784C35.9949 14.5872 36.231 14.3511 36.5222 14.3511C36.8135 14.3511 37.0496 14.5872 37.0496 14.8784V34.6788C37.0496 35.4078 36.4587 36 35.7284 36H17.2784C16.5491 36 15.9572 35.4081 15.9572 34.6788V31.1903C15.9572 30.899 16.1933 30.6629 16.4846 30.6629H25.7363C25.9835 30.6629 26.1839 30.4625 26.1839 30.2153V28.0389C26.0425 28.083 25.8922 28.1067 25.7363 28.1067H5.28344C4.57758 28.1067 4.00537 28.6789 4.00537 29.3848C4.00537 30.0906 4.57758 30.6629 5.28344 30.6629H14.0064C14.2977 30.6629 14.5338 30.899 14.5338 31.1902C14.5338 31.4814 14.2977 31.7175 14.0064 31.7175H5.28344C3.9951 31.7175 2.95068 30.6731 2.95068 29.3848V2.33276ZM4.00537 27.433C4.37246 27.1921 4.81159 27.052 5.28344 27.052H7.16578V1.05469H5.28344C4.57758 1.05469 4.00537 1.6269 4.00537 2.33276V27.433ZM8.22047 1.05469V27.052H25.7363C25.9834 27.052 26.1838 26.8517 26.1839 26.6045C26.1839 26.6045 26.1839 26.6045 26.1839 26.6045V25.1227C26.1839 25.1199 26.1838 25.117 26.1838 25.1142C26.1838 25.1114 26.1839 25.1086 26.1839 25.1057V23.0109C26.1839 23.0081 26.1838 23.0053 26.1838 23.0025C26.1838 22.9996 26.1839 22.9968 26.1839 22.994V1.5023C26.1839 1.25509 25.9835 1.05469 25.7363 1.05469H8.22047ZM27.2386 18.2517H34.0831V12.9712H27.2386V18.2517ZM17.2022 4.67691C17.4934 4.67691 17.7295 4.91301 17.7295 5.20425V5.95109C20.441 6.10078 22.0947 7.38771 22.9559 8.3812C22.9762 8.40459 22.9944 8.42971 23.0102 8.45628L24.9943 11.7792C25.0431 11.8609 25.0689 11.9543 25.0689 12.0495V12.3237C25.0689 13.7107 23.9445 14.8352 22.5575 14.8352C21.1705 14.8352 20.046 13.7107 20.046 12.3237V12.0495C20.046 11.9543 20.0718 11.8609 20.1206 11.7792L21.9021 8.79553C21.1379 8.02687 19.8124 7.13793 17.7295 7.00765V14.2582L20.276 16.5443C20.4094 16.6641 20.5161 16.8107 20.5892 16.9744C20.6622 17.1381 20.7 17.3154 20.7 17.4947C20.6999 18.2 20.1282 18.7721 19.4227 18.7721H14.9816C14.2762 18.7721 13.7043 18.2003 13.7043 17.4948C13.7043 17.1322 13.8585 16.7866 14.1284 16.5443L16.6748 14.2582V7.00761C14.5917 7.13777 13.2664 8.02673 12.5022 8.79551L14.2837 11.7792C14.3325 11.8609 14.3583 11.9543 14.3583 12.0495V12.3237C14.3583 13.7107 13.2338 14.8352 11.8468 14.8352C10.4598 14.8352 9.33541 13.7107 9.33541 12.3237V12.0495C9.33541 11.9543 9.36118 11.8609 9.40998 11.7792L11.3941 8.45628C11.4099 8.42971 11.4281 8.4046 11.4484 8.38122C12.3096 7.38761 13.9631 6.1006 16.6748 5.95106V5.20425C16.6748 4.91301 16.9109 4.67691 17.2022 4.67691ZM11.8468 9.75527L12.9018 11.5222H10.7918L11.8468 9.75527ZM10.412 12.5769H13.2817C13.1618 13.2607 12.565 13.7805 11.8468 13.7805C11.1287 13.7805 10.5318 13.2607 10.412 12.5769ZM17.2022 15.2021L14.833 17.3291C14.786 17.3713 14.759 17.4316 14.759 17.4948C14.759 17.6178 14.8587 17.7174 14.9816 17.7174H19.4227C19.5455 17.7174 19.6452 17.6178 19.6453 17.4949M17.2022 15.2021L19.5714 17.3291C19.5947 17.35 19.6133 17.3756 19.626 17.4041C19.6387 17.4326 19.6453 17.4637 19.6453 17.4949M22.5575 9.75527L23.6125 11.5222H21.5025L22.5575 9.75527ZM21.1226 12.5769H23.9923C23.8725 13.2607 23.2757 13.7805 22.5575 13.7805C21.8393 13.7805 21.2425 13.2607 21.1226 12.5769ZM31.6738 10.3323C31.6738 10.041 31.9099 9.80494 32.2011 9.80494H34.6107C34.902 9.80494 35.1381 10.041 35.1381 10.3323C35.1381 10.6235 34.902 10.8596 34.6107 10.8596H32.2011C31.9099 10.8596 31.6738 10.6235 31.6738 10.3323ZM31.6738 20.8908C31.6738 20.5995 31.9099 20.3634 32.2011 20.3634H34.6107C34.902 20.3634 35.1381 20.5995 35.1381 20.8908C35.1381 21.182 34.902 21.4181 34.6107 21.4181H32.2011C31.9099 21.4181 31.6738 21.182 31.6738 20.8908ZM12.4149 21.5182C12.1782 21.5182 11.9864 21.71 11.9864 21.9466C11.9864 22.1833 12.1782 22.3751 12.4149 22.3751H22.0504C22.2871 22.3751 22.4789 22.1833 22.4789 21.9466C22.4789 21.71 22.2871 21.5182 22.0504 21.5182H12.4149ZM10.9317 21.9466C10.9317 21.1275 11.5957 20.4635 12.4149 20.4635H22.0504C22.8696 20.4635 23.5336 21.1275 23.5336 21.9466C23.5336 22.7658 22.8696 23.4298 22.0504 23.4298H12.4149C11.5957 23.4298 10.9317 22.7658 10.9317 21.9466ZM31.6738 29.3376C31.6738 29.0464 31.9099 28.8103 32.2011 28.8103H34.6107C34.902 28.8103 35.1381 29.0464 35.1381 29.3376C35.1381 29.6289 34.902 29.865 34.6107 29.865H32.2011C31.9099 29.865 31.6738 29.6289 31.6738 29.3376ZM31.6738 31.4493C31.6738 31.1581 31.9099 30.922 32.2011 30.922H34.6107C34.902 30.922 35.1381 31.1581 35.1381 31.4493C35.1381 31.7405 34.902 31.9766 34.6107 31.9766H32.2011C31.9099 31.9766 31.6738 31.7405 31.6738 31.4493ZM17.8691 33.561C17.8691 33.2698 18.1052 33.0337 18.3964 33.0337H34.6107C34.902 33.0337 35.1381 33.2698 35.1381 33.561C35.1381 33.8522 34.902 34.0883 34.6107 34.0883H18.3964C18.1052 34.0883 17.8691 33.8522 17.8691 33.561Z" fill="#FCFCFC"/>
</svg>
