<svg width="28" height="28" viewBox="0 0 28 28" fill="none" xmlns="http://www.w3.org/2000/svg">
<g clip-path="url(#clip0_237_1408)">
<path d="M20.5491 18.1021C22.2436 15.7898 23.0026 12.9229 22.6741 10.0751C22.3457 7.22722 20.9541 4.6084 18.7777 2.74253C16.6013 0.876666 13.8007 -0.09864 10.9361 0.011738C8.07146 0.122116 5.35417 1.31004 3.32781 3.33784C1.30146 5.36565 0.115483 8.08379 0.00715487 10.9485C-0.101173 13.8131 0.876136 16.6131 2.74356 18.7881C4.61098 20.9632 7.2308 22.3529 10.0789 22.6793C12.927 23.0057 15.7933 22.2447 18.1043 20.5486H18.1026C18.1551 20.6186 18.2111 20.6851 18.2741 20.7498L25.0116 27.4873C25.3397 27.8157 25.7849 28.0002 26.2491 28.0004C26.7133 28.0006 27.1586 27.8163 27.487 27.4882C27.8153 27.16 27.9999 26.7149 28.0001 26.2507C28.0002 25.7864 27.816 25.3412 27.4878 25.0128L20.7503 18.2753C20.6878 18.212 20.6205 18.1535 20.5491 18.1003V18.1021ZM21.0006 11.3751C21.0006 12.639 20.7516 13.8906 20.2679 15.0584C19.7842 16.2261 19.0753 17.2872 18.1815 18.181C17.2877 19.0747 16.2267 19.7837 15.0589 20.2674C13.8912 20.7511 12.6396 21.0001 11.3756 21.0001C10.1116 21.0001 8.86003 20.7511 7.69227 20.2674C6.52451 19.7837 5.46346 19.0747 4.56969 18.181C3.67593 17.2872 2.96696 16.2261 2.48325 15.0584C1.99955 13.8906 1.75059 12.639 1.75059 11.3751C1.75059 8.82235 2.76465 6.37419 4.56969 4.56915C6.37473 2.76411 8.82289 1.75005 11.3756 1.75005C13.9283 1.75005 16.3765 2.76411 18.1815 4.56915C19.9865 6.37419 21.0006 8.82235 21.0006 11.3751Z" fill="#FCFCFC"/>
</g>
<defs>
<clipPath id="clip0_237_1408">
<rect width="28" height="28" fill="white"/>
</clipPath>
</defs>
</svg>
