<svg width="40" height="36" viewBox="0 0 40 36" fill="none" xmlns="http://www.w3.org/2000/svg">
<g clip-path="url(#clip0_216_926)">
<path fill-rule="evenodd" clip-rule="evenodd" d="M5.82275 32.1737C5.82275 33.1681 6.62886 33.9741 7.6231 33.9741H11.0098C11.2706 33.9741 11.482 33.7627 11.482 33.5019C11.482 33.241 11.2706 33.0296 11.0098 33.0296H7.6231C7.15043 33.0296 6.7672 32.6464 6.7672 32.1737V1.82607C6.7672 1.35336 7.15043 0.970169 7.6231 0.970169H23.8067C24.0339 0.970169 24.2519 1.06056 24.4123 1.22137L29.8109 6.62954C29.8109 6.62953 29.8109 6.62954 29.8109 6.62954C29.9711 6.79002 30.061 7.00752 30.061 7.23426V10.3324C30.061 10.5932 30.2725 10.8047 30.5333 10.8047C30.7941 10.8047 31.0055 10.5932 31.0055 10.3324V7.23426C31.0055 6.75734 30.8163 6.2999 30.4793 5.96235L25.0809 0.55426C25.0809 0.554241 25.0809 0.554279 25.0809 0.55426C24.7432 0.21587 24.2847 0.0257187 23.8067 0.0257187H7.6231C6.62886 0.0257187 5.82275 0.83173 5.82275 1.82607V32.1737Z" fill="#FCFCFC"/>
<path fill-rule="evenodd" clip-rule="evenodd" d="M12.8618 33.5019C12.8618 33.7627 13.0732 33.9741 13.334 33.9741H29.2051C30.1995 33.9741 31.0055 33.168 31.0055 32.1737V26.4794C31.0055 26.2186 30.7941 26.0072 30.5333 26.0072C30.2725 26.0072 30.061 26.2186 30.061 26.4794V32.1737C30.061 32.6464 29.6778 33.0296 29.2051 33.0296H13.334C13.0732 33.0296 12.8618 33.241 12.8618 33.5019Z" fill="#FCFCFC"/>
<path fill-rule="evenodd" clip-rule="evenodd" d="M25.6856 6.2015C25.2129 6.2015 24.8297 5.81832 24.8297 5.3456V0.829973C24.8297 0.569171 24.6183 0.357749 24.3575 0.357749C24.0967 0.357749 23.8853 0.569171 23.8853 0.829973V5.3456C23.8853 6.33992 24.6913 7.14595 25.6856 7.14595H30.1348C30.3956 7.14595 30.607 6.93452 30.607 6.67372C30.607 6.41292 30.3956 6.2015 30.1348 6.2015H25.6856Z" fill="#FCFCFC"/>
<path fill-rule="evenodd" clip-rule="evenodd" d="M7.6231 31.0374C7.15038 31.0374 6.7672 30.6543 6.7672 30.1815V29.4179C6.7672 29.1571 6.55578 28.9456 6.29498 28.9456C6.03418 28.9456 5.82275 29.1571 5.82275 29.4179V30.1815C5.82275 31.1759 6.62878 31.9819 7.6231 31.9819H29.2051C30.1995 31.9819 31.0055 31.1759 31.0055 30.1815V29.4179C31.0055 29.1571 30.7941 28.9456 30.5333 28.9456C30.2725 28.9456 30.061 29.1571 30.061 29.4179V30.1815C30.061 30.6543 29.6779 31.0374 29.2051 31.0374H7.6231Z" fill="#FCFCFC"/>
<path fill-rule="evenodd" clip-rule="evenodd" d="M16.4625 28.1156V21.0913H17.5103V28.1156H16.4625ZM15.7536 28.8244C15.9045 28.9753 16.109 29.06 16.3223 29.06H17.6504C17.8637 29.06 18.0683 28.9753 18.2191 28.8244C18.37 28.6736 18.4547 28.4691 18.4547 28.2558V20.9511C18.4547 20.7378 18.37 20.5332 18.2191 20.3824C18.0683 20.2315 17.8637 20.1468 17.6504 20.1468H16.3223C16.109 20.1468 15.9045 20.2315 15.7536 20.3824C15.6028 20.5332 15.5181 20.7378 15.5181 20.9511V28.2558C15.5181 28.4691 15.6028 28.6736 15.7536 28.8244Z" fill="#FCFCFC"/>
<path fill-rule="evenodd" clip-rule="evenodd" d="M20.4469 28.1156V17.1069H21.4946V28.1156H20.4469ZM19.738 28.8244C19.8888 28.9753 20.0934 29.06 20.3067 29.06H21.6348C21.8481 29.06 22.0527 28.9753 22.2035 28.8244C22.3543 28.6736 22.4391 28.4691 22.4391 28.2558V16.9667C22.4391 16.7534 22.3543 16.5488 22.2035 16.398C22.0527 16.2472 21.8481 16.1624 21.6348 16.1624H20.3067C20.0934 16.1624 19.8888 16.2472 19.738 16.398C19.5872 16.5488 19.5024 16.7534 19.5024 16.9667V28.2558C19.5024 28.4691 19.5872 28.6736 19.738 28.8244Z" fill="#FCFCFC"/>
<path fill-rule="evenodd" clip-rule="evenodd" d="M8.479 26.5956C8.479 26.8564 8.69043 27.0678 8.95123 27.0678H9.61529C9.87609 27.0678 10.0875 26.8564 10.0875 26.5956C10.0875 26.3348 9.87609 26.1234 9.61529 26.1234H8.95123C8.69043 26.1234 8.479 26.3348 8.479 26.5956Z" fill="#FCFCFC"/>
<path fill-rule="evenodd" clip-rule="evenodd" d="M8.479 24.6034C8.479 24.8642 8.69043 25.0756 8.95123 25.0756H9.61529C9.87609 25.0756 10.0875 24.8642 10.0875 24.6034C10.0875 24.3426 9.87609 24.1312 9.61529 24.1312H8.95123C8.69043 24.1312 8.479 24.3426 8.479 24.6034Z" fill="#FCFCFC"/>
<path fill-rule="evenodd" clip-rule="evenodd" d="M8.479 22.6112C8.479 22.872 8.69043 23.0834 8.95123 23.0834H9.61529C9.87609 23.0834 10.0875 22.872 10.0875 22.6112C10.0875 22.3504 9.87609 22.139 9.61529 22.139H8.95123C8.69043 22.139 8.479 22.3504 8.479 22.6112Z" fill="#FCFCFC"/>
<path fill-rule="evenodd" clip-rule="evenodd" d="M8.479 20.619C8.479 20.8798 8.69043 21.0913 8.95123 21.0913H9.61529C9.87609 21.0913 10.0875 20.8798 10.0875 20.619C10.0875 20.3582 9.87609 20.1468 9.61529 20.1468H8.95123C8.69043 20.1468 8.479 20.3582 8.479 20.619Z" fill="#FCFCFC"/>
<path fill-rule="evenodd" clip-rule="evenodd" d="M8.479 18.6268C8.479 18.8876 8.69043 19.0991 8.95123 19.0991H9.61529C9.87609 19.0991 10.0875 18.8876 10.0875 18.6268C10.0875 18.366 9.87609 18.1546 9.61529 18.1546H8.95123C8.69043 18.1546 8.479 18.366 8.479 18.6268Z" fill="#FCFCFC"/>
<path fill-rule="evenodd" clip-rule="evenodd" d="M8.479 16.6347C8.479 16.8955 8.69043 17.1069 8.95123 17.1069H9.61529C9.87609 17.1069 10.0875 16.8955 10.0875 16.6347C10.0875 16.3739 9.87609 16.1624 9.61529 16.1624H8.95123C8.69043 16.1624 8.479 16.3739 8.479 16.6347Z" fill="#FCFCFC"/>
<path fill-rule="evenodd" clip-rule="evenodd" d="M8.479 28.5878C8.479 28.8486 8.69043 29.06 8.95123 29.06H9.61529C9.87609 29.06 10.0875 28.8486 10.0875 28.5878C10.0875 28.327 9.87609 28.1156 9.61529 28.1156H8.95123C8.69043 28.1156 8.479 28.327 8.479 28.5878Z" fill="#FCFCFC"/>
<path fill-rule="evenodd" clip-rule="evenodd" d="M23.7356 28.7644C23.8864 28.9153 24.091 29 24.3043 29H25.6324C25.8457 29 26.0502 28.9153 26.2011 28.7644C26.3515 28.614 26.4362 28.4101 26.4366 28.1974L26.4366 28.1957H25.9644L26.4366 28.1985L26.4366 28.1974L26.4579 24.5249C26.4594 24.2641 26.2492 24.0514 25.9884 24.0499C25.7276 24.0484 25.515 24.2586 25.5134 24.5194L25.493 28.0556L25.6562 28.1016C25.5234 28.0938 25.6191 28.1016 25.6562 28.1016C25.657 28.0654 25.7168 28.2081 25.6562 28.1016L25.4922 28.1941L24.4444 28.0556M24.4444 28.0556V19.2309C24.4444 18.9701 24.233 18.7587 23.9722 18.7587C23.7114 18.7587 23.5 18.9701 23.5 19.2309V28.1957C23.5 28.409 23.5847 28.6136 23.7356 28.7644M24.4444 28.0556H25.493L25.6562 28.1016L25.4922 28.1941" fill="#FCFCFC"/>
<path fill-rule="evenodd" clip-rule="evenodd" d="M8.479 8.00185C8.479 8.62942 8.98773 9.13814 9.61529 9.13814H27.2129C27.8405 9.13814 28.3492 8.62942 28.3492 8.00185V6.67373C28.3492 6.41292 28.1378 6.2015 27.877 6.2015C27.6162 6.2015 27.4048 6.41292 27.4048 6.67373V8.00185C27.4048 8.10781 27.3189 8.19369 27.2129 8.19369H9.61529C9.50933 8.19369 9.42345 8.10781 9.42345 8.00185V5.67763C9.42345 5.57167 9.50933 5.48579 9.61529 5.48579H24.3575C24.6183 5.48579 24.8297 5.27437 24.8297 5.01357C24.8297 4.75277 24.6183 4.54135 24.3575 4.54135H9.61529C8.98773 4.54135 8.479 5.05007 8.479 5.67763V8.00185Z" fill="#FCFCFC"/>
<path fill-rule="evenodd" clip-rule="evenodd" d="M8.479 12.6503C8.479 12.9111 8.69043 13.1225 8.95123 13.1225H19.045C19.3058 13.1225 19.5172 12.9111 19.5172 12.6503C19.5172 12.3895 19.3058 12.1781 19.045 12.1781H8.95123C8.69043 12.1781 8.479 12.3895 8.479 12.6503Z" fill="#FCFCFC"/>
<path fill-rule="evenodd" clip-rule="evenodd" d="M8.479 14.6425C8.479 14.9033 8.69043 15.1147 8.95123 15.1147H15.9903C16.2511 15.1147 16.4625 14.9033 16.4625 14.6425C16.4625 14.3817 16.2511 14.1703 15.9903 14.1703H8.95123C8.69043 14.1703 8.479 14.3817 8.479 14.6425Z" fill="#FCFCFC"/>
<path fill-rule="evenodd" clip-rule="evenodd" d="M37.7054 19.9957C37.9662 19.9957 38.1776 19.7842 38.1776 19.5234C38.1776 15.4669 34.8889 12.1782 30.8323 12.1782C29.44 12.1782 28.137 12.5657 27.0266 13.2394C26.8037 13.3747 26.7326 13.6652 26.8679 13.8881C27.0032 14.1111 27.2936 14.1822 27.5166 14.0469C28.4834 13.4603 29.6175 13.1226 30.8323 13.1226C34.3673 13.1226 37.2331 15.9885 37.2331 19.5234C37.2331 19.7842 37.4446 19.9957 37.7054 19.9957Z" fill="#FCFCFC"/>
<path fill-rule="evenodd" clip-rule="evenodd" d="M30.4284 19.768C30.5139 19.9093 30.6671 19.9957 30.8323 19.9957H37.5725C37.8333 19.9957 38.0448 19.7842 38.0448 19.5234C38.0448 19.2626 37.8333 19.0512 37.5725 19.0512H31.0984L27.6755 13.3986C27.5405 13.1755 27.2501 13.1041 27.027 13.2392C26.8039 13.3743 26.7326 13.6647 26.8677 13.8878L30.4284 19.768Z" fill="#FCFCFC"/>
<path fill-rule="evenodd" clip-rule="evenodd" d="M23.4868 19.5233C23.4868 23.5799 26.7755 26.8686 30.8321 26.8686C34.8887 26.8686 38.1774 23.5799 38.1774 19.5233C38.1774 19.2625 37.9659 19.0511 37.7051 19.0511C37.4443 19.0511 37.2329 19.2625 37.2329 19.5233C37.2329 23.0583 34.3671 25.9242 30.8321 25.9242C27.2971 25.9242 24.4313 23.0583 24.4313 19.5233C24.4313 17.2029 25.666 15.17 27.5164 14.0467C27.7394 13.9114 27.8104 13.621 27.6751 13.398C27.5397 13.1751 27.2493 13.1041 27.0263 13.2394C24.9057 14.5267 23.4868 16.8593 23.4868 19.5233Z" fill="#FCFCFC"/>
</g>
<defs>
<clipPath id="clip0_216_926">
<rect width="40" height="36" fill="white"/>
</clipPath>
</defs>
</svg>
